<?xml version="1.0" encoding="UTF-8"?>
<svg width="62px" height="62px" viewBox="0 0 62 62" version="1.1" xmlns="http://www.w3.org/2000/svg" xmlns:xlink="http://www.w3.org/1999/xlink">
    <!-- Generator: Sketch 49 (51002) - http://www.bohemiancoding.com/sketch -->
    <title>btn_gotochat</title>
    <desc>Created with Sketch.</desc>
    <defs>
        <linearGradient x1="5.70699488%" y1="0%" x2="88.4823829%" y2="90.78334%" id="linearGradient-1">
            <stop stop-color="#B4EC51" offset="0%"></stop>
            <stop stop-color="#47E420" offset="100%"></stop>
        </linearGradient>
        <circle id="path-2" cx="31" cy="31" r="31"></circle>
        <linearGradient x1="5.70699488%" y1="0%" x2="86.0082182%" y2="90.4468254%" id="linearGradient-3">
            <stop stop-color="#B4EC51" offset="0%"></stop>
            <stop stop-color="#47E420" offset="100%"></stop>
        </linearGradient>
    </defs>
    <g id="btn_gotochat" stroke="none" stroke-width="1" fill="none" fill-rule="evenodd">
        <g id="Btn_GoToChat">
            <g id="Oval">
                <use fill="#FFFFFF" fill-rule="evenodd" xlink:href="#path-2"></use>
                <circle stroke="url(#linearGradient-1)" stroke-width="1" cx="31" cy="31" r="30.5"></circle>
            </g>
            <path d="M30.0563126,42 L24.7171306,47.4938689 C24.3322219,47.8899292 23.6991214,47.8989693 23.3030612,47.5140606 C23.1093156,47.3257702 23,47.0670978 23,46.7969301 L23,42 L20,42 C18.3431458,42 17,40.6568542 17,39 L17,24 C17,22.3431458 18.3431458,21 20,21 L44,21 C45.6568542,21 47,22.3431458 47,24 L47,39 C47,40.6568542 45.6568542,42 44,42 L30.0563126,42 Z" id="Combined-Shape" fill="url(#linearGradient-3)"></path>
        </g>
    </g>
</svg>